<?xml version="1.0" encoding="UTF-8" standalone="no"?><svg xmlns="http://www.w3.org/2000/svg" xmlns:xlink="http://www.w3.org/1999/xlink" contentScriptType="application/ecmascript" contentStyleType="text/css" height="121px" preserveAspectRatio="none" style="width:304px;height:121px;" version="1.1" viewBox="0 0 304 121" width="304px" zoomAndPan="magnify"><defs><filter height="300%" id="f3jpl30gevskr" width="300%" x="-1" y="-1"><feGaussianBlur result="blurOut" stdDeviation="2.0"/><feColorMatrix in="blurOut" result="blurOut2" type="matrix" values="0 0 0 0 0 0 0 0 0 0 0 0 0 0 0 0 0 0 .4 0"/><feOffset dx="4.0" dy="4.0" in="blurOut2" result="blurOut3"/><feBlend in="SourceGraphic" in2="blurOut3" mode="normal"/></filter></defs><g><!--class SomeDatabaseExtension--><rect fill="#FEFECE" filter="url(#f3jpl30gevskr)" height="102.2979" id="SomeDatabaseExtension" style="stroke: #A80036; stroke-width: 1.5;" width="287" x="6" y="8"/><ellipse cx="74.75" cy="24" fill="#ADD1B2" rx="11" ry="11" style="stroke: #A80036; stroke-width: 1.0;"/><path d="M77.7231,29.6431 Q77.1421,29.9419 76.5029,30.0913 Q75.8638,30.2407 75.1582,30.2407 Q72.6514,30.2407 71.3315,28.5889 Q70.0117,26.937 70.0117,23.8159 Q70.0117,20.6865 71.3315,19.0347 Q72.6514,17.3828 75.1582,17.3828 Q75.8638,17.3828 76.5112,17.5322 Q77.1587,17.6816 77.7231,17.9805 L77.7231,20.7031 Q77.0923,20.1221 76.4988,19.8523 Q75.9053,19.5825 75.2744,19.5825 Q73.9297,19.5825 73.2449,20.6492 Q72.5601,21.7158 72.5601,23.8159 Q72.5601,25.9077 73.2449,26.9744 Q73.9297,28.041 75.2744,28.041 Q75.9053,28.041 76.4988,27.7712 Q77.0923,27.5015 77.7231,26.9204 Z "/><text fill="#000000" font-family="sans-serif" font-size="12" lengthAdjust="spacingAndGlyphs" textLength="141" x="95.25" y="28.5352">SomeDatabaseExtension</text><line style="stroke: #A80036; stroke-width: 1.5;" x1="7" x2="292" y1="40" y2="40"/><text fill="#000000" font-family="sans-serif" font-size="11" lengthAdjust="spacingAndGlyphs" textLength="195" x="12" y="71.5898">initialiseDatabaseExtras(connection)</text><text fill="#000000" font-family="sans-serif" font-size="11" font-style="italic" lengthAdjust="spacingAndGlyphs" textLength="77" x="210" y="71.5898">Can be No-Op</text><text fill="#000000" font-family="sans-serif" font-size="11" lengthAdjust="spacingAndGlyphs" textLength="235" x="12" y="84.5449">canOperateWithDatabase(connection) : bool</text><line style="stroke: #A80036; stroke-width: 1.0; stroke-dasharray: 1.0,2.0;" x1="7" x2="50.5" y1="54.4775" y2="54.4775"/><text fill="#000000" font-family="sans-serif" font-size="11" lengthAdjust="spacingAndGlyphs" textLength="198" x="50.5" y="58.1348">Initialise/Validate current connection</text><line style="stroke: #A80036; stroke-width: 1.0; stroke-dasharray: 1.0,2.0;" x1="248.5" x2="292" y1="54.4775" y2="54.4775"/><line style="stroke: #A80036; stroke-width: 1.0; stroke-dasharray: 1.0,2.0;" x1="7" x2="57.5" y1="97.3428" y2="97.3428"/><text fill="#000000" font-family="sans-serif" font-size="11" lengthAdjust="spacingAndGlyphs" textLength="184" x="57.5" y="101">Hooks for modifying query results</text><line style="stroke: #A80036; stroke-width: 1.0; stroke-dasharray: 1.0,2.0;" x1="241.5" x2="292" y1="97.3428" y2="97.3428"/><!--
@startuml

class SomeDatabaseExtension {
  .. Initialise/Validate current connection ..
  initialiseDatabaseExtras(connection) //Can be No-Op//
  canOperateWithDatabase(connection) : bool

  .. Hooks for modifying query results ..

}
@enduml

PlantUML version 1.2017.18(Sat Oct 07 03:56:32 AEDT 2017)
(GPL source distribution)
Java Runtime: Java(TM) SE Runtime Environment
JVM: Java HotSpot(TM) 64-Bit Server VM
Java Version: 1.8.0_152-b16
Operating System: Mac OS X
OS Version: 10.13.2
Default Encoding: UTF-8
Language: en
Country: AU
--></g></svg>