<?xml version="1.0" encoding="UTF-8" standalone="no"?><svg xmlns="http://www.w3.org/2000/svg" xmlns:xlink="http://www.w3.org/1999/xlink" contentScriptType="application/ecmascript" contentStyleType="text/css" height="308px" preserveAspectRatio="none" style="width:323px;height:308px;" version="1.1" viewBox="0 0 323 308" width="323px" zoomAndPan="magnify"><defs><filter height="300%" id="f1tli9vdoj3cs1" width="300%" x="-1" y="-1"><feGaussianBlur result="blurOut" stdDeviation="2.0"/><feColorMatrix in="blurOut" result="blurOut2" type="matrix" values="0 0 0 0 0 0 0 0 0 0 0 0 0 0 0 0 0 0 .4 0"/><feOffset dx="4.0" dy="4.0" in="blurOut2" result="blurOut3"/><feBlend in="SourceGraphic" in2="blurOut3" mode="normal"/></filter></defs><g><!--class DatacubeIndex--><rect fill="#FEFECE" filter="url(#f1tli9vdoj3cs1)" height="48" id="DatacubeIndex" style="stroke: #A80036; stroke-width: 1.5;" width="119" x="115.5" y="8"/><ellipse cx="130.5" cy="24" fill="#B4A7E5" rx="11" ry="11" style="stroke: #A80036; stroke-width: 1.0;"/><path d="M126.4277,19.7651 L126.4277,17.6069 L133.8071,17.6069 L133.8071,19.7651 L131.3418,19.7651 L131.3418,27.8418 L133.8071,27.8418 L133.8071,30 L126.4277,30 L126.4277,27.8418 L128.8931,27.8418 L128.8931,19.7651 Z "/><text fill="#000000" font-family="sans-serif" font-size="12" font-style="italic" lengthAdjust="spacingAndGlyphs" textLength="87" x="144.5" y="28.5352">DatacubeIndex</text><line style="stroke: #A80036; stroke-width: 1.5;" x1="116.5" x2="233.5" y1="40" y2="40"/><line style="stroke: #A80036; stroke-width: 1.5;" x1="116.5" x2="233.5" y1="48" y2="48"/><!--class DefaultIndex--><rect fill="#FEFECE" filter="url(#f1tli9vdoj3cs1)" height="48" id="DefaultIndex" style="stroke: #A80036; stroke-width: 1.5;" width="105" x="47.5" y="122.5"/><ellipse cx="62.5" cy="138.5" fill="#ADD1B2" rx="11" ry="11" style="stroke: #A80036; stroke-width: 1.0;"/><path d="M65.4731,144.1431 Q64.8921,144.4419 64.2529,144.5913 Q63.6138,144.7407 62.9082,144.7407 Q60.4014,144.7407 59.0815,143.0889 Q57.7617,141.437 57.7617,138.3159 Q57.7617,135.1865 59.0815,133.5347 Q60.4014,131.8828 62.9082,131.8828 Q63.6138,131.8828 64.2612,132.0322 Q64.9087,132.1816 65.4731,132.4805 L65.4731,135.2031 Q64.8423,134.6221 64.2488,134.3523 Q63.6553,134.0825 63.0244,134.0825 Q61.6797,134.0825 60.9949,135.1492 Q60.3101,136.2158 60.3101,138.3159 Q60.3101,140.4077 60.9949,141.4744 Q61.6797,142.541 63.0244,142.541 Q63.6553,142.541 64.2488,142.2712 Q64.8423,142.0015 65.4731,141.4204 Z "/><text fill="#000000" font-family="sans-serif" font-size="12" lengthAdjust="spacingAndGlyphs" textLength="73" x="76.5" y="143.0352">DefaultIndex</text><line style="stroke: #A80036; stroke-width: 1.5;" x1="48.5" x2="151.5" y1="154.5" y2="154.5"/><line style="stroke: #A80036; stroke-width: 1.5;" x1="48.5" x2="151.5" y1="162.5" y2="162.5"/><!--class SomeDatabaseExtension--><rect fill="#FEFECE" filter="url(#f1tli9vdoj3cs1)" height="60.9551" id="SomeDatabaseExtension" style="stroke: #A80036; stroke-width: 1.5;" width="188" x="6" y="237"/><ellipse cx="27.75" cy="253" fill="#ADD1B2" rx="11" ry="11" style="stroke: #A80036; stroke-width: 1.0;"/><path d="M30.7231,258.6431 Q30.1421,258.9419 29.5029,259.0913 Q28.8638,259.2407 28.1582,259.2407 Q25.6514,259.2407 24.3315,257.5889 Q23.0117,255.937 23.0117,252.8159 Q23.0117,249.6865 24.3315,248.0347 Q25.6514,246.3828 28.1582,246.3828 Q28.8638,246.3828 29.5112,246.5322 Q30.1587,246.6816 30.7231,246.9805 L30.7231,249.7031 Q30.0923,249.1221 29.4988,248.8523 Q28.9053,248.5825 28.2744,248.5825 Q26.9297,248.5825 26.2449,249.6492 Q25.5601,250.7158 25.5601,252.8159 Q25.5601,254.9077 26.2449,255.9744 Q26.9297,257.041 28.2744,257.041 Q28.9053,257.041 29.4988,256.7712 Q30.0923,256.5015 30.7231,255.9204 Z "/><text fill="#000000" font-family="sans-serif" font-size="12" lengthAdjust="spacingAndGlyphs" textLength="141" x="43.25" y="257.5352">SomeDatabaseExtension</text><line style="stroke: #A80036; stroke-width: 1.5;" x1="7" x2="193" y1="269" y2="269"/><text fill="#000000" font-family="sans-serif" font-size="11" lengthAdjust="spacingAndGlyphs" textLength="176" x="12" y="283.6348">eg. Adding S3 chunk information</text><line style="stroke: #A80036; stroke-width: 1.5;" x1="7" x2="193" y1="289.9551" y2="289.9551"/><!--class AlternativeIndex--><rect fill="#FEFECE" filter="url(#f1tli9vdoj3cs1)" height="60.9551" id="AlternativeIndex" style="stroke: #A80036; stroke-width: 1.5;" width="125" x="187.5" y="116"/><ellipse cx="202.5" cy="132" fill="#ADD1B2" rx="11" ry="11" style="stroke: #A80036; stroke-width: 1.0;"/><path d="M205.4731,137.6431 Q204.8921,137.9419 204.2529,138.0913 Q203.6138,138.2407 202.9082,138.2407 Q200.4014,138.2407 199.0815,136.5889 Q197.7617,134.937 197.7617,131.8159 Q197.7617,128.6865 199.0815,127.0347 Q200.4014,125.3828 202.9082,125.3828 Q203.6138,125.3828 204.2612,125.5322 Q204.9087,125.6816 205.4731,125.9805 L205.4731,128.7031 Q204.8423,128.1221 204.2488,127.8523 Q203.6553,127.5825 203.0244,127.5825 Q201.6797,127.5825 200.9949,128.6492 Q200.3101,129.7158 200.3101,131.8159 Q200.3101,133.9077 200.9949,134.9744 Q201.6797,136.041 203.0244,136.041 Q203.6553,136.041 204.2488,135.7712 Q204.8423,135.5015 205.4731,134.9204 Z "/><text fill="#000000" font-family="sans-serif" font-size="12" lengthAdjust="spacingAndGlyphs" textLength="93" x="216.5" y="136.5352">AlternativeIndex</text><line style="stroke: #A80036; stroke-width: 1.5;" x1="188.5" x2="311.5" y1="148" y2="148"/><text fill="#000000" font-family="sans-serif" font-size="11" lengthAdjust="spacingAndGlyphs" textLength="87" x="193.5" y="162.6348">eg. Using SQLite</text><line style="stroke: #A80036; stroke-width: 1.5;" x1="188.5" x2="311.5" y1="168.9551" y2="168.9551"/><!--link DatacubeIndex to DefaultIndex--><path d="M148.2543,72.8318 C137.4495,89.3271 125.3435,107.8089 115.9601,122.1343 " fill="none" id="DatacubeIndex-DefaultIndex" style="stroke: #A80036; stroke-width: 1.0;"/><polygon fill="none" points="142.4631,68.8978,159.2775,56.003,154.1744,76.5689,142.4631,68.8978" style="stroke: #A80036; stroke-width: 1.0;"/><!--link DefaultIndex to SomeDatabaseExtension--><path d="M100,190.8771 C100,206.1699 100,222.9453 100,236.8909 " fill="none" id="DefaultIndex-SomeDatabaseExtension" style="stroke: #A80036; stroke-width: 1.0;"/><polygon fill="none" points="93.0001,190.6954,100,170.6953,107.0001,190.6953,93.0001,190.6954" style="stroke: #A80036; stroke-width: 1.0;"/><!--link DatacubeIndex to AlternativeIndex--><path d="M201.797,72.9101 C211.097,87.1082 221.3557,102.7696 230.0099,115.9818 " fill="none" id="DatacubeIndex-AlternativeIndex" style="stroke: #A80036; stroke-width: 1.0;"/><polygon fill="none" points="195.8256,76.5689,190.7225,56.003,207.5369,68.8978,195.8256,76.5689" style="stroke: #A80036; stroke-width: 1.0;"/><!--
@startuml

interface DatacubeIndex 

class DefaultIndex 

class SomeDatabaseExtension {
  eg. Adding S3 chunk information
}

class AlternativeIndex {
  eg. Using SQLite
}

DatacubeIndex <|- - DefaultIndex
DefaultIndex <|- - SomeDatabaseExtension
DatacubeIndex <|- - AlternativeIndex


@enduml

PlantUML version 1.2017.18(Sat Oct 07 03:56:32 AEDT 2017)
(GPL source distribution)
Java Runtime: Java(TM) SE Runtime Environment
JVM: Java HotSpot(TM) 64-Bit Server VM
Java Version: 1.8.0_152-b16
Operating System: Mac OS X
OS Version: 10.13.2
Default Encoding: UTF-8
Language: en
Country: AU
--></g></svg>