<?xml version="1.0" encoding="UTF-8" standalone="no"?><svg xmlns="http://www.w3.org/2000/svg" xmlns:xlink="http://www.w3.org/1999/xlink" contentScriptType="application/ecmascript" contentStyleType="text/css" height="442px" preserveAspectRatio="none" style="width:663px;height:442px;background:#F5F5F5;" version="1.1" viewBox="0 0 663 442" width="663px" zoomAndPan="magnify"><defs><filter height="300%" id="f1sv713a9vwmly" width="300%" x="-1" y="-1"><feGaussianBlur result="blurOut" stdDeviation="2.0"/><feColorMatrix in="blurOut" result="blurOut2" type="matrix" values="0 0 0 0 0 0 0 0 0 0 0 0 0 0 0 0 0 0 .4 0"/><feOffset dx="4.0" dy="4.0" in="blurOut2" result="blurOut3"/><feBlend in="SourceGraphic" in2="blurOut3" mode="normal"/></filter></defs><g><text fill="#000000" font-family="sans-serif" font-size="14" font-weight="bold" lengthAdjust="spacingAndGlyphs" textLength="149" x="257.5" y="23.5352">Simple Data Loading</text><line style="stroke: #A80036; stroke-width: 1.0; stroke-dasharray: 5.0,5.0;" x1="26" x2="26" y1="116.9766" y2="355.1504"/><line style="stroke: #A80036; stroke-width: 1.0; stroke-dasharray: 5.0,5.0;" x1="224.5" x2="224.5" y1="116.9766" y2="355.1504"/><line style="stroke: #A80036; stroke-width: 1.0; stroke-dasharray: 5.0,5.0;" x1="478" x2="478" y1="116.9766" y2="355.1504"/><line style="stroke: #A80036; stroke-width: 1.0; stroke-dasharray: 5.0,5.0;" x1="583" x2="583" y1="116.9766" y2="355.1504"/><text fill="#000000" font-family="sans-serif" font-size="14" lengthAdjust="spacingAndGlyphs" textLength="31" x="8" y="114.0234">User</text><ellipse cx="26.5" cy="43.4883" fill="#FEFECE" filter="url(#f1sv713a9vwmly)" rx="8" ry="8" style="stroke: #A80036; stroke-width: 2.0;"/><path d="M26.5,51.4883 L26.5,78.4883 M13.5,59.4883 L39.5,59.4883 M26.5,78.4883 L13.5,93.4883 M26.5,78.4883 L39.5,93.4883 " fill="#FEFECE" filter="url(#f1sv713a9vwmly)" style="stroke: #A80036; stroke-width: 2.0;"/><text fill="#000000" font-family="sans-serif" font-size="14" lengthAdjust="spacingAndGlyphs" textLength="31" x="8" y="367.6855">User</text><ellipse cx="26.5" cy="380.6387" fill="#FEFECE" filter="url(#f1sv713a9vwmly)" rx="8" ry="8" style="stroke: #A80036; stroke-width: 2.0;"/><path d="M26.5,388.6387 L26.5,415.6387 M13.5,396.6387 L39.5,396.6387 M26.5,415.6387 L13.5,430.6387 M26.5,415.6387 L39.5,430.6387 " fill="#FEFECE" filter="url(#f1sv713a9vwmly)" style="stroke: #A80036; stroke-width: 2.0;"/><rect fill="#FEFECE" filter="url(#f1sv713a9vwmly)" height="30.4883" style="stroke: #A80036; stroke-width: 1.5;" width="78" x="183.5" y="81.4883"/><text fill="#000000" font-family="sans-serif" font-size="14" lengthAdjust="spacingAndGlyphs" textLength="64" x="190.5" y="102.0234">Datacube</text><rect fill="#FEFECE" filter="url(#f1sv713a9vwmly)" height="30.4883" style="stroke: #A80036; stroke-width: 1.5;" width="78" x="183.5" y="354.1504"/><text fill="#000000" font-family="sans-serif" font-size="14" lengthAdjust="spacingAndGlyphs" textLength="64" x="190.5" y="374.6855">Datacube</text><text fill="#000000" font-family="sans-serif" font-size="14" lengthAdjust="spacingAndGlyphs" textLength="39" x="456" y="114.0234">Index</text><path d="M460.5,64.4883 C460.5,54.4883 478.5,54.4883 478.5,54.4883 C478.5,54.4883 496.5,54.4883 496.5,64.4883 L496.5,90.4883 C496.5,100.4883 478.5,100.4883 478.5,100.4883 C478.5,100.4883 460.5,100.4883 460.5,90.4883 L460.5,64.4883 " fill="#FEFECE" filter="url(#f1sv713a9vwmly)" style="stroke: #000000; stroke-width: 1.5;"/><path d="M460.5,64.4883 C460.5,74.4883 478.5,74.4883 478.5,74.4883 C478.5,74.4883 496.5,74.4883 496.5,64.4883 " fill="none" style="stroke: #000000; stroke-width: 1.5;"/><text fill="#000000" font-family="sans-serif" font-size="14" lengthAdjust="spacingAndGlyphs" textLength="39" x="456" y="367.6855">Index</text><path d="M460.5,380.6387 C460.5,370.6387 478.5,370.6387 478.5,370.6387 C478.5,370.6387 496.5,370.6387 496.5,380.6387 L496.5,406.6387 C496.5,416.6387 478.5,416.6387 478.5,416.6387 C478.5,416.6387 460.5,416.6387 460.5,406.6387 L460.5,380.6387 " fill="#FEFECE" filter="url(#f1sv713a9vwmly)" style="stroke: #000000; stroke-width: 1.5;"/><path d="M460.5,380.6387 C460.5,390.6387 478.5,390.6387 478.5,390.6387 C478.5,390.6387 496.5,390.6387 496.5,380.6387 " fill="none" style="stroke: #000000; stroke-width: 1.5;"/><rect fill="#FEFECE" filter="url(#f1sv713a9vwmly)" height="30.4883" style="stroke: #A80036; stroke-width: 1.5;" width="137" x="515" y="77.4883"/><rect fill="#FEFECE" filter="url(#f1sv713a9vwmly)" height="30.4883" style="stroke: #A80036; stroke-width: 1.5;" width="137" x="511" y="81.4883"/><text fill="#000000" font-family="sans-serif" font-size="14" lengthAdjust="spacingAndGlyphs" textLength="123" x="518" y="102.0234">Disk/S3/HTTP/etc</text><rect fill="#FEFECE" filter="url(#f1sv713a9vwmly)" height="30.4883" style="stroke: #A80036; stroke-width: 1.5;" width="137" x="515" y="354.1504"/><rect fill="#FEFECE" filter="url(#f1sv713a9vwmly)" height="30.4883" style="stroke: #A80036; stroke-width: 1.5;" width="137" x="511" y="358.1504"/><text fill="#000000" font-family="sans-serif" font-size="14" lengthAdjust="spacingAndGlyphs" textLength="123" x="518" y="378.6855">Disk/S3/HTTP/etc</text><polygon fill="#A80036" points="212.5,143.9766,222.5,147.9766,212.5,151.9766,216.5,147.9766" style="stroke: #A80036; stroke-width: 1.0;"/><line style="stroke: #A80036; stroke-width: 1.0;" x1="26.5" x2="218.5" y1="147.9766" y2="147.9766"/><text fill="#000000" font-family="sans-serif" font-size="13" lengthAdjust="spacingAndGlyphs" textLength="153" x="33.5" y="143.5449">Request a region of data</text><polygon fill="#A80036" points="466.5,173.2871,476.5,177.2871,466.5,181.2871,470.5,177.2871" style="stroke: #A80036; stroke-width: 1.0;"/><line style="stroke: #A80036; stroke-width: 1.0;" x1="224.5" x2="472.5" y1="177.2871" y2="177.2871"/><text fill="#000000" font-family="sans-serif" font-size="13" lengthAdjust="spacingAndGlyphs" textLength="175" x="231.5" y="172.8555">Query for available datasets</text><polygon fill="#A80036" points="235.5,202.5977,225.5,206.5977,235.5,210.5977,231.5,206.5977" style="stroke: #A80036; stroke-width: 1.0;"/><line style="stroke: #A80036; stroke-width: 1.0; stroke-dasharray: 2.0,2.0;" x1="229.5" x2="477.5" y1="206.5977" y2="206.5977"/><text fill="#000000" font-family="sans-serif" font-size="13" lengthAdjust="spacingAndGlyphs" textLength="94" x="241.5" y="202.166">list of datasets</text><line style="stroke: #A80036; stroke-width: 1.0;" x1="224.5" x2="266.5" y1="236.2188" y2="236.2188"/><line style="stroke: #A80036; stroke-width: 1.0;" x1="266.5" x2="266.5" y1="236.2188" y2="249.2188"/><line style="stroke: #A80036; stroke-width: 1.0;" x1="225.5" x2="266.5" y1="249.2188" y2="249.2188"/><polygon fill="#A80036" points="235.5,245.2188,225.5,249.2188,235.5,253.2188,231.5,249.2188" style="stroke: #A80036; stroke-width: 1.0;"/><text fill="#000000" font-family="sans-serif" font-size="13" lengthAdjust="spacingAndGlyphs" textLength="240" x="231.5" y="231.4766">Transform list and prepare for loading</text><polygon fill="#A80036" points="571.5,274.2188,581.5,278.2188,571.5,282.2188,575.5,278.2188" style="stroke: #A80036; stroke-width: 1.0;"/><line style="stroke: #A80036; stroke-width: 1.0;" x1="224.5" x2="577.5" y1="278.2188" y2="278.2188"/><text fill="#000000" font-family="sans-serif" font-size="13" lengthAdjust="spacingAndGlyphs" textLength="207" x="231.5" y="273.7871">Load data from disk/s3/http/etc</text><polygon fill="#A80036" points="235.5,303.5293,225.5,307.5293,235.5,311.5293,231.5,307.5293" style="stroke: #A80036; stroke-width: 1.0;"/><line style="stroke: #A80036; stroke-width: 1.0; stroke-dasharray: 2.0,2.0;" x1="229.5" x2="582.5" y1="307.5293" y2="307.5293"/><text fill="#000000" font-family="sans-serif" font-size="13" lengthAdjust="spacingAndGlyphs" textLength="157" x="241.5" y="303.0977">data loaded into memory</text><polygon fill="#A80036" points="37.5,332.8398,27.5,336.8398,37.5,340.8398,33.5,336.8398" style="stroke: #A80036; stroke-width: 1.0;"/><line style="stroke: #A80036; stroke-width: 1.0; stroke-dasharray: 2.0,2.0;" x1="31.5" x2="223.5" y1="336.8398" y2="336.8398"/><text fill="#000000" font-family="sans-serif" font-size="13" lengthAdjust="spacingAndGlyphs" textLength="174" x="43.5" y="332.4082">Return an in memory xarray</text><!--
@startuml

' note right of Index : Typically PostgreSQL

' note right of [First Component]
'   A note can also
'   be on several lines
' end note
title Simple Data Loading
skinparam backgroundColor WhiteSmoke
actor User
participant Datacube
database Index
collections "Disk/S3/HTTP/etc" as Storage

User -> Datacube: Request a region of data
Datacube -> Index : Query for available datasets

Index - -> Datacube : list of datasets

Datacube -> Datacube : Transform list and prepare for loading

Datacube -> Storage : Load data from disk/s3/http/etc
Storage - -> Datacube : data loaded into memory
Datacube - -> User : Return an in memory xarray


@enduml

PlantUML version 1.2017.18(Sat Oct 07 03:56:32 AEDT 2017)
(GPL source distribution)
Java Runtime: Java(TM) SE Runtime Environment
JVM: Java HotSpot(TM) 64-Bit Server VM
Java Version: 1.8.0_152-b16
Operating System: Mac OS X
OS Version: 10.13.2
Default Encoding: UTF-8
Language: en
Country: AU
--></g></svg>