<?xml version="1.0" encoding="UTF-8" standalone="no"?><svg xmlns="http://www.w3.org/2000/svg" xmlns:xlink="http://www.w3.org/1999/xlink" contentScriptType="application/ecmascript" contentStyleType="text/css" height="711px" preserveAspectRatio="none" style="width:1692px;height:711px;" version="1.1" viewBox="0 0 1692 711" width="1692px" zoomAndPan="magnify"><defs><filter height="300%" id="fcvemcrmcf5hp" width="300%" x="-1" y="-1"><feGaussianBlur result="blurOut" stdDeviation="2.0"/><feColorMatrix in="blurOut" result="blurOut2" type="matrix" values="0 0 0 0 0 0 0 0 0 0 0 0 0 0 0 0 0 0 .4 0"/><feOffset dx="4.0" dy="4.0" in="blurOut2" result="blurOut3"/><feBlend in="SourceGraphic" in2="blurOut3" mode="normal"/></filter></defs><g><!--cluster rasterio--><polygon fill="#FFFFFF" filter="url(#fcvemcrmcf5hp)" points="88,86.5,149,86.5,156,110.1094,182,110.1094,182,186.5,88,186.5,88,86.5" style="stroke: #000000; stroke-width: 2.0;"/><line style="stroke: #000000; stroke-width: 2.0;" x1="88" x2="156" y1="110.1094" y2="110.1094"/><text fill="#000000" font-family="sans-serif" font-size="14" font-weight="bold" lengthAdjust="spacingAndGlyphs" textLength="55" x="92" y="103.0332">rasterio</text><!--cluster datacube.drivers--><polygon fill="#FFFFFF" filter="url(#fcvemcrmcf5hp)" points="582,24,708,24,715,47.6094,1168,47.6094,1168,249,582,249,582,24" style="stroke: #000000; stroke-width: 2.0;"/><line style="stroke: #000000; stroke-width: 2.0;" x1="582" x2="715" y1="47.6094" y2="47.6094"/><text fill="#000000" font-family="sans-serif" font-size="14" font-weight="bold" lengthAdjust="spacingAndGlyphs" textLength="120" x="586" y="40.5332">datacube.drivers</text><!--cluster datacube.drivers.s3--><polygon fill="#FFFFFF" filter="url(#fcvemcrmcf5hp)" points="22,299,168,299,175,322.6094,1102,322.6094,1102,427,22,427,22,299" style="stroke: #000000; stroke-width: 2.0;"/><line style="stroke: #000000; stroke-width: 2.0;" x1="22" x2="175" y1="322.6094" y2="322.6094"/><text fill="#000000" font-family="sans-serif" font-size="14" font-weight="bold" lengthAdjust="spacingAndGlyphs" textLength="140" x="26" y="315.5332">datacube.drivers.s3</text><!--cluster datacube.drivers.netcdf--><polygon fill="#FFFFFF" filter="url(#fcvemcrmcf5hp)" points="1067,599,1242,599,1249,622.6094,1252,622.6094,1252,699,1067,699,1067,599" style="stroke: #000000; stroke-width: 2.0;"/><line style="stroke: #000000; stroke-width: 2.0;" x1="1067" x2="1249" y1="622.6094" y2="622.6094"/><text fill="#000000" font-family="sans-serif" font-size="14" font-weight="bold" lengthAdjust="spacingAndGlyphs" textLength="169" x="1071" y="615.5332">datacube.drivers.netcdf</text><!--cluster datacube.storage.storage--><polygon fill="#FFFFFF" filter="url(#fcvemcrmcf5hp)" points="1197,65.5,1384,65.5,1391,89.1094,1670,89.1094,1670,566,1197,566,1197,65.5" style="stroke: #000000; stroke-width: 2.0;"/><line style="stroke: #000000; stroke-width: 2.0;" x1="1197" x2="1391" y1="89.1094" y2="89.1094"/><text fill="#000000" font-family="sans-serif" font-size="14" font-weight="bold" lengthAdjust="spacingAndGlyphs" textLength="181" x="1201" y="82.0332">datacube.storage.storage</text><!--class rasterio.Band--><rect fill="#FEFECE" filter="url(#fcvemcrmcf5hp)" height="48" id="rasterio.Band" style="stroke: #A80036; stroke-width: 1.5;" width="61" x="104.5" y="122.5"/><ellipse cx="119.5" cy="138.5" fill="#A9DCDF" rx="11" ry="11" style="stroke: #A80036; stroke-width: 1.0;"/><path d="M121.6875,140.2656 L117.5469,140.2656 L117.125,141.2969 L117.5469,141.2969 Q118.1563,141.2969 118.4219,141.5313 Q118.6875,141.7656 118.6875,142.1563 Q118.6875,142.5313 118.4219,142.7656 Q118.1563,143 117.5469,143 L115.25,143 Q114.6406,143 114.3828,142.7656 Q114.125,142.5313 114.125,142.1406 Q114.125,141.7656 114.3984,141.5234 Q114.6719,141.2813 115.2969,141.2969 L117.9688,134.6406 L116.8594,134.6406 Q116.25,134.6406 115.9844,134.4063 Q115.7188,134.1719 115.7188,133.7813 Q115.7188,133.4063 115.9844,133.1719 Q116.25,132.9375 116.8594,132.9375 L120.5313,132.9375 L123.9219,141.2969 Q124.5156,141.2969 124.7031,141.4375 Q125.0938,141.7031 125.0938,142.1563 Q125.0938,142.5313 124.8359,142.7656 Q124.5781,143 123.9688,143 L121.6719,143 Q121.0625,143 120.7969,142.7656 Q120.5313,142.5313 120.5313,142.1406 Q120.5313,141.7656 120.7969,141.5313 Q121.0625,141.2969 121.6719,141.2969 L122.0938,141.2969 L121.6875,140.2656 Z M120.9688,138.5625 L119.6094,135.1875 L118.2344,138.5625 L120.9688,138.5625 Z "/><text fill="#000000" font-family="sans-serif" font-size="12" font-style="italic" lengthAdjust="spacingAndGlyphs" textLength="29" x="133.5" y="143.4102">Band</text><line style="stroke: #A80036; stroke-width: 1.5;" x1="105.5" x2="164.5" y1="154.5" y2="154.5"/><line style="stroke: #A80036; stroke-width: 1.5;" x1="105.5" x2="164.5" y1="162.5" y2="162.5"/><!--class DataSource--><rect fill="#FEFECE" filter="url(#fcvemcrmcf5hp)" height="103.3438" id="DataSource" style="stroke: #A80036; stroke-width: 1.5;" width="373" x="778.5" y="95"/><ellipse cx="928.25" cy="111" fill="#A9DCDF" rx="11" ry="11" style="stroke: #A80036; stroke-width: 1.0;"/><path d="M930.4375,112.7656 L926.2969,112.7656 L925.875,113.7969 L926.2969,113.7969 Q926.9063,113.7969 927.1719,114.0313 Q927.4375,114.2656 927.4375,114.6563 Q927.4375,115.0313 927.1719,115.2656 Q926.9063,115.5 926.2969,115.5 L924,115.5 Q923.3906,115.5 923.1328,115.2656 Q922.875,115.0313 922.875,114.6406 Q922.875,114.2656 923.1484,114.0234 Q923.4219,113.7813 924.0469,113.7969 L926.7188,107.1406 L925.6094,107.1406 Q925,107.1406 924.7344,106.9063 Q924.4688,106.6719 924.4688,106.2813 Q924.4688,105.9063 924.7344,105.6719 Q925,105.4375 925.6094,105.4375 L929.2813,105.4375 L932.6719,113.7969 Q933.2656,113.7969 933.4531,113.9375 Q933.8438,114.2031 933.8438,114.6563 Q933.8438,115.0313 933.5859,115.2656 Q933.3281,115.5 932.7188,115.5 L930.4219,115.5 Q929.8125,115.5 929.5469,115.2656 Q929.2813,115.0313 929.2813,114.6406 Q929.2813,114.2656 929.5469,114.0313 Q929.8125,113.7969 930.4219,113.7969 L930.8438,113.7969 L930.4375,112.7656 Z M929.7188,111.0625 L928.3594,107.6875 L926.9844,111.0625 L929.7188,111.0625 Z "/><text fill="#000000" font-family="sans-serif" font-size="12" font-style="italic" lengthAdjust="spacingAndGlyphs" textLength="65" x="948.75" y="115.9102">DataSource</text><line style="stroke: #A80036; stroke-width: 1.5;" x1="779.5" x2="1150.5" y1="127" y2="127"/><text fill="#000000" font-family="sans-serif" font-size="11" lengthAdjust="spacingAndGlyphs" textLength="361" x="784.5" y="142.4189">Responsible for reading data for a single measurement for a single Dataset</text><line style="stroke: #A80036; stroke-width: 1.5;" x1="779.5" x2="1150.5" y1="148.8359" y2="148.8359"/><text fill="#000000" font-family="sans-serif" font-size="11" lengthAdjust="spacingAndGlyphs" textLength="124" x="784.5" y="164.2549">@contextmanager open()</text><text fill="#000000" font-family="sans-serif" font-size="11" lengthAdjust="spacingAndGlyphs" textLength="76" x="784.5" y="178.0908">get_transform()</text><text fill="#000000" font-family="sans-serif" font-size="11" lengthAdjust="spacingAndGlyphs" textLength="89" x="784.5" y="191.9268">get_bandnumber()</text><!--class Driver--><rect fill="#FEFECE" filter="url(#fcvemcrmcf5hp)" height="172.5234" id="Driver" style="stroke: #A80036; stroke-width: 1.5;" width="145" x="598.5" y="60"/><ellipse cx="650.25" cy="76" fill="#A9DCDF" rx="11" ry="11" style="stroke: #A80036; stroke-width: 1.0;"/><path d="M652.4375,77.7656 L648.2969,77.7656 L647.875,78.7969 L648.2969,78.7969 Q648.9063,78.7969 649.1719,79.0313 Q649.4375,79.2656 649.4375,79.6563 Q649.4375,80.0313 649.1719,80.2656 Q648.9063,80.5 648.2969,80.5 L646,80.5 Q645.3906,80.5 645.1328,80.2656 Q644.875,80.0313 644.875,79.6406 Q644.875,79.2656 645.1484,79.0234 Q645.4219,78.7813 646.0469,78.7969 L648.7188,72.1406 L647.6094,72.1406 Q647,72.1406 646.7344,71.9063 Q646.4688,71.6719 646.4688,71.2813 Q646.4688,70.9063 646.7344,70.6719 Q647,70.4375 647.6094,70.4375 L651.2813,70.4375 L654.6719,78.7969 Q655.2656,78.7969 655.4531,78.9375 Q655.8438,79.2031 655.8438,79.6563 Q655.8438,80.0313 655.5859,80.2656 Q655.3281,80.5 654.7188,80.5 L652.4219,80.5 Q651.8125,80.5 651.5469,80.2656 Q651.2813,80.0313 651.2813,79.6406 Q651.2813,79.2656 651.5469,79.0313 Q651.8125,78.7969 652.4219,78.7969 L652.8438,78.7969 L652.4375,77.7656 Z M651.7188,76.0625 L650.3594,72.6875 L648.9844,76.0625 L651.7188,76.0625 Z "/><text fill="#000000" font-family="sans-serif" font-size="12" font-style="italic" lengthAdjust="spacingAndGlyphs" textLength="33" x="670.75" y="80.9102">Driver</text><line style="stroke: #A80036; stroke-width: 1.5;" x1="599.5" x2="742.5" y1="92" y2="92"/><text fill="#000000" font-family="sans-serif" font-size="11" lengthAdjust="spacingAndGlyphs" textLength="26" x="604.5" y="107.4189">name</text><text fill="#000000" font-family="sans-serif" font-size="11" lengthAdjust="spacingAndGlyphs" textLength="31" x="604.5" y="121.2549">format</text><text fill="#000000" font-family="sans-serif" font-size="11" lengthAdjust="spacingAndGlyphs" textLength="56" x="604.5" y="135.0908">uri_scheme</text><text fill="#000000" font-family="sans-serif" font-size="11" lengthAdjust="spacingAndGlyphs" textLength="47" x="604.5" y="148.9268">index xxx</text><line style="stroke: #A80036; stroke-width: 1.5;" x1="599.5" x2="742.5" y1="155.3438" y2="155.3438"/><text fill="#000000" font-family="sans-serif" font-size="11" lengthAdjust="spacingAndGlyphs" textLength="118" x="604.5" y="170.7627">requirements_satisfied()</text><text fill="#000000" font-family="sans-serif" font-size="11" lengthAdjust="spacingAndGlyphs" textLength="133" x="604.5" y="184.5986">write_dataset_to_storage()</text><text fill="#000000" font-family="sans-serif" font-size="11" lengthAdjust="spacingAndGlyphs" textLength="38" x="604.5" y="198.4346">as_uri()</text><text fill="#000000" font-family="sans-serif" font-size="11" lengthAdjust="spacingAndGlyphs" textLength="59" x="604.5" y="212.2705">_init_index()</text><text fill="#000000" font-family="sans-serif" font-size="11" lengthAdjust="spacingAndGlyphs" textLength="84" x="604.5" y="226.1064">get_datasource()</text><!--class S3Source--><rect fill="#FEFECE" filter="url(#fcvemcrmcf5hp)" height="75.6719" id="S3Source" style="stroke: #A80036; stroke-width: 1.5;" width="193" x="38.5" y="335"/><ellipse cx="103.75" cy="351" fill="#ADD1B2" rx="11" ry="11" style="stroke: #A80036; stroke-width: 1.0;"/><path d="M106.5156,346.875 Q106.6719,346.6563 106.8594,346.5469 Q107.0469,346.4375 107.2656,346.4375 Q107.6406,346.4375 107.875,346.6953 Q108.1094,346.9531 108.1094,347.5625 L108.1094,349.0156 Q108.1094,349.625 107.875,349.8906 Q107.6406,350.1563 107.2656,350.1563 Q106.9219,350.1563 106.7188,349.9531 Q106.5156,349.7656 106.4063,349.25 Q106.3594,348.8906 106.1719,348.7031 Q105.8438,348.3281 105.2344,348.1094 Q104.625,347.8906 104,347.8906 Q103.2344,347.8906 102.6016,348.2188 Q101.9688,348.5469 101.4766,349.2969 Q100.9844,350.0469 100.9844,351.0781 L100.9844,352.1719 Q100.9844,353.4063 101.875,354.2266 Q102.7656,355.0469 104.3594,355.0469 Q105.2969,355.0469 105.9531,354.7969 Q106.3438,354.6406 106.7656,354.2031 Q107.0313,353.9375 107.1797,353.8594 Q107.3281,353.7813 107.5313,353.7813 Q107.8594,353.7813 108.1172,354.0391 Q108.375,354.2969 108.375,354.6406 Q108.375,354.9844 108.0313,355.3906 Q107.5313,355.9688 106.7344,356.2969 Q105.6563,356.75 104.3594,356.75 Q102.8438,356.75 101.6406,356.125 Q100.6563,355.625 99.9688,354.5547 Q99.2813,353.4844 99.2813,352.2031 L99.2813,351.0469 Q99.2813,349.7188 99.8984,348.5703 Q100.5156,347.4219 101.6094,346.8047 Q102.7031,346.1875 103.9375,346.1875 Q104.6719,346.1875 105.3203,346.3516 Q105.9688,346.5156 106.5156,346.875 Z "/><text fill="#000000" font-family="sans-serif" font-size="12" lengthAdjust="spacingAndGlyphs" textLength="54" x="124.25" y="355.9102">S3Source</text><line style="stroke: #A80036; stroke-width: 1.5;" x1="39.5" x2="230.5" y1="367" y2="367"/><text fill="#000000" font-family="sans-serif" font-size="11" lengthAdjust="spacingAndGlyphs" textLength="130" x="44.5" y="382.4189">Similar API to rasterio.Band</text><line style="stroke: #A80036; stroke-width: 1.5;" x1="39.5" x2="230.5" y1="388.8359" y2="388.8359"/><text fill="#000000" font-family="sans-serif" font-size="11" lengthAdjust="spacingAndGlyphs" textLength="181" x="44.5" y="404.2549">read(indexes, window, write_shape)</text><!--class S3DS--><rect fill="#FEFECE" filter="url(#fcvemcrmcf5hp)" height="75.6719" id="S3DS" style="stroke: #A80036; stroke-width: 1.5;" width="183" x="598.5" y="335"/><ellipse cx="669.75" cy="351" fill="#ADD1B2" rx="11" ry="11" style="stroke: #A80036; stroke-width: 1.0;"/><path d="M672.5156,346.875 Q672.6719,346.6563 672.8594,346.5469 Q673.0469,346.4375 673.2656,346.4375 Q673.6406,346.4375 673.875,346.6953 Q674.1094,346.9531 674.1094,347.5625 L674.1094,349.0156 Q674.1094,349.625 673.875,349.8906 Q673.6406,350.1563 673.2656,350.1563 Q672.9219,350.1563 672.7188,349.9531 Q672.5156,349.7656 672.4063,349.25 Q672.3594,348.8906 672.1719,348.7031 Q671.8438,348.3281 671.2344,348.1094 Q670.625,347.8906 670,347.8906 Q669.2344,347.8906 668.6016,348.2188 Q667.9688,348.5469 667.4766,349.2969 Q666.9844,350.0469 666.9844,351.0781 L666.9844,352.1719 Q666.9844,353.4063 667.875,354.2266 Q668.7656,355.0469 670.3594,355.0469 Q671.2969,355.0469 671.9531,354.7969 Q672.3438,354.6406 672.7656,354.2031 Q673.0313,353.9375 673.1797,353.8594 Q673.3281,353.7813 673.5313,353.7813 Q673.8594,353.7813 674.1172,354.0391 Q674.375,354.2969 674.375,354.6406 Q674.375,354.9844 674.0313,355.3906 Q673.5313,355.9688 672.7344,356.2969 Q671.6563,356.75 670.3594,356.75 Q668.8438,356.75 667.6406,356.125 Q666.6563,355.625 665.9688,354.5547 Q665.2813,353.4844 665.2813,352.2031 L665.2813,351.0469 Q665.2813,349.7188 665.8984,348.5703 Q666.5156,347.4219 667.6094,346.8047 Q668.7031,346.1875 669.9375,346.1875 Q670.6719,346.1875 671.3203,346.3516 Q671.9688,346.5156 672.5156,346.875 Z "/><text fill="#000000" font-family="sans-serif" font-size="12" lengthAdjust="spacingAndGlyphs" textLength="32" x="690.25" y="355.9102">S3DS</text><line style="stroke: #A80036; stroke-width: 1.5;" x1="599.5" x2="780.5" y1="367" y2="367"/><line style="stroke: #A80036; stroke-width: 1.5;" x1="599.5" x2="780.5" y1="375" y2="375"/><text fill="#000000" font-family="sans-serif" font-size="11" lengthAdjust="spacingAndGlyphs" textLength="76" x="604.5" y="390.4189">__init__(parent)</text><text fill="#000000" font-family="sans-serif" font-size="11" lengthAdjust="spacingAndGlyphs" textLength="171" x="604.5" y="404.2549">read(indexes, window, out_shape)</text><!--class S3DataSource--><rect fill="#98FB98" filter="url(#fcvemcrmcf5hp)" height="75.6719" id="S3DataSource" style="stroke: #A80036; stroke-width: 1.5;" width="269" x="816.5" y="335"/><rect fill="#98FB98" height="32" style="stroke: #A80036; stroke-width: 1.5;" width="269" x="816.5" y="335"/><ellipse cx="906.75" cy="351" fill="#ADD1B2" rx="11" ry="11" style="stroke: #A80036; stroke-width: 1.0;"/><path d="M909.5156,346.875 Q909.6719,346.6563 909.8594,346.5469 Q910.0469,346.4375 910.2656,346.4375 Q910.6406,346.4375 910.875,346.6953 Q911.1094,346.9531 911.1094,347.5625 L911.1094,349.0156 Q911.1094,349.625 910.875,349.8906 Q910.6406,350.1563 910.2656,350.1563 Q909.9219,350.1563 909.7188,349.9531 Q909.5156,349.7656 909.4063,349.25 Q909.3594,348.8906 909.1719,348.7031 Q908.8438,348.3281 908.2344,348.1094 Q907.625,347.8906 907,347.8906 Q906.2344,347.8906 905.6016,348.2188 Q904.9688,348.5469 904.4766,349.2969 Q903.9844,350.0469 903.9844,351.0781 L903.9844,352.1719 Q903.9844,353.4063 904.875,354.2266 Q905.7656,355.0469 907.3594,355.0469 Q908.2969,355.0469 908.9531,354.7969 Q909.3438,354.6406 909.7656,354.2031 Q910.0313,353.9375 910.1797,353.8594 Q910.3281,353.7813 910.5313,353.7813 Q910.8594,353.7813 911.1172,354.0391 Q911.375,354.2969 911.375,354.6406 Q911.375,354.9844 911.0313,355.3906 Q910.5313,355.9688 909.7344,356.2969 Q908.6563,356.75 907.3594,356.75 Q905.8438,356.75 904.6406,356.125 Q903.6563,355.625 902.9688,354.5547 Q902.2813,353.4844 902.2813,352.2031 L902.2813,351.0469 Q902.2813,349.7188 902.8984,348.5703 Q903.5156,347.4219 904.6094,346.8047 Q905.7031,346.1875 906.9375,346.1875 Q907.6719,346.1875 908.3203,346.3516 Q908.9688,346.5156 909.5156,346.875 Z "/><text fill="#000000" font-family="sans-serif" font-size="12" lengthAdjust="spacingAndGlyphs" textLength="80" x="927.25" y="355.9102">S3DataSource</text><line style="stroke: #A80036; stroke-width: 1.5;" x1="817.5" x2="1084.5" y1="367" y2="367"/><line style="stroke: #A80036; stroke-width: 1.5;" x1="817.5" x2="1084.5" y1="375" y2="375"/><text fill="#000000" font-family="sans-serif" font-size="11" lengthAdjust="spacingAndGlyphs" textLength="186" x="822.5" y="390.4189">__init__(dataset, band_name, storage)</text><text fill="#000000" font-family="sans-serif" font-size="11" lengthAdjust="spacingAndGlyphs" textLength="257" x="822.5" y="404.2549">@contextmanager open() : OverrideBandDataSource</text><!--class S3Driver--><rect fill="#FEFECE" filter="url(#fcvemcrmcf5hp)" height="61.8359" id="S3Driver" style="stroke: #A80036; stroke-width: 1.5;" width="296" x="267" y="342"/><ellipse cx="387.25" cy="358" fill="#ADD1B2" rx="11" ry="11" style="stroke: #A80036; stroke-width: 1.0;"/><path d="M390.0156,353.875 Q390.1719,353.6563 390.3594,353.5469 Q390.5469,353.4375 390.7656,353.4375 Q391.1406,353.4375 391.375,353.6953 Q391.6094,353.9531 391.6094,354.5625 L391.6094,356.0156 Q391.6094,356.625 391.375,356.8906 Q391.1406,357.1563 390.7656,357.1563 Q390.4219,357.1563 390.2188,356.9531 Q390.0156,356.7656 389.9063,356.25 Q389.8594,355.8906 389.6719,355.7031 Q389.3438,355.3281 388.7344,355.1094 Q388.125,354.8906 387.5,354.8906 Q386.7344,354.8906 386.1016,355.2188 Q385.4688,355.5469 384.9766,356.2969 Q384.4844,357.0469 384.4844,358.0781 L384.4844,359.1719 Q384.4844,360.4063 385.375,361.2266 Q386.2656,362.0469 387.8594,362.0469 Q388.7969,362.0469 389.4531,361.7969 Q389.8438,361.6406 390.2656,361.2031 Q390.5313,360.9375 390.6797,360.8594 Q390.8281,360.7813 391.0313,360.7813 Q391.3594,360.7813 391.6172,361.0391 Q391.875,361.2969 391.875,361.6406 Q391.875,361.9844 391.5313,362.3906 Q391.0313,362.9688 390.2344,363.2969 Q389.1563,363.75 387.8594,363.75 Q386.3438,363.75 385.1406,363.125 Q384.1563,362.625 383.4688,361.5547 Q382.7813,360.4844 382.7813,359.2031 L382.7813,358.0469 Q382.7813,356.7188 383.3984,355.5703 Q384.0156,354.4219 385.1094,353.8047 Q386.2031,353.1875 387.4375,353.1875 Q388.1719,353.1875 388.8203,353.3516 Q389.4688,353.5156 390.0156,353.875 Z "/><text fill="#000000" font-family="sans-serif" font-size="12" lengthAdjust="spacingAndGlyphs" textLength="47" x="407.75" y="362.9102">S3Driver</text><line style="stroke: #A80036; stroke-width: 1.5;" x1="268" x2="562" y1="374" y2="374"/><line style="stroke: #A80036; stroke-width: 1.5;" x1="268" x2="562" y1="382" y2="382"/><text fill="#000000" font-family="sans-serif" font-size="11" lengthAdjust="spacingAndGlyphs" textLength="284" x="273" y="397.4189">get_datasource(dataset, measurement_id) : S3DataSource</text><!--class NetCDFDriver--><rect fill="#FEFECE" filter="url(#fcvemcrmcf5hp)" height="48" id="NetCDFDriver" style="stroke: #A80036; stroke-width: 1.5;" width="108" x="1105" y="635"/><ellipse cx="1120" cy="651" fill="#ADD1B2" rx="11" ry="11" style="stroke: #A80036; stroke-width: 1.0;"/><path d="M1122.7656,646.875 Q1122.9219,646.6563 1123.1094,646.5469 Q1123.2969,646.4375 1123.5156,646.4375 Q1123.8906,646.4375 1124.125,646.6953 Q1124.3594,646.9531 1124.3594,647.5625 L1124.3594,649.0156 Q1124.3594,649.625 1124.125,649.8906 Q1123.8906,650.1563 1123.5156,650.1563 Q1123.1719,650.1563 1122.9688,649.9531 Q1122.7656,649.7656 1122.6563,649.25 Q1122.6094,648.8906 1122.4219,648.7031 Q1122.0938,648.3281 1121.4844,648.1094 Q1120.875,647.8906 1120.25,647.8906 Q1119.4844,647.8906 1118.8516,648.2188 Q1118.2188,648.5469 1117.7266,649.2969 Q1117.2344,650.0469 1117.2344,651.0781 L1117.2344,652.1719 Q1117.2344,653.4063 1118.125,654.2266 Q1119.0156,655.0469 1120.6094,655.0469 Q1121.5469,655.0469 1122.2031,654.7969 Q1122.5938,654.6406 1123.0156,654.2031 Q1123.2813,653.9375 1123.4297,653.8594 Q1123.5781,653.7813 1123.7813,653.7813 Q1124.1094,653.7813 1124.3672,654.0391 Q1124.625,654.2969 1124.625,654.6406 Q1124.625,654.9844 1124.2813,655.3906 Q1123.7813,655.9688 1122.9844,656.2969 Q1121.9063,656.75 1120.6094,656.75 Q1119.0938,656.75 1117.8906,656.125 Q1116.9063,655.625 1116.2188,654.5547 Q1115.5313,653.4844 1115.5313,652.2031 L1115.5313,651.0469 Q1115.5313,649.7188 1116.1484,648.5703 Q1116.7656,647.4219 1117.8594,646.8047 Q1118.9531,646.1875 1120.1875,646.1875 Q1120.9219,646.1875 1121.5703,646.3516 Q1122.2188,646.5156 1122.7656,646.875 Z "/><text fill="#000000" font-family="sans-serif" font-size="12" lengthAdjust="spacingAndGlyphs" textLength="76" x="1134" y="655.9102">NetCDFDriver</text><line style="stroke: #A80036; stroke-width: 1.5;" x1="1106" x2="1212" y1="667" y2="667"/><line style="stroke: #A80036; stroke-width: 1.5;" x1="1106" x2="1212" y1="675" y2="675"/><!--class BandDataSource--><rect fill="#FEFECE" filter="url(#fcvemcrmcf5hp)" height="89.5078" id="BandDataSource" style="stroke: #A80036; stroke-width: 1.5;" width="182" x="1450" y="101.5"/><ellipse cx="1490.2" cy="117.5" fill="#ADD1B2" rx="11" ry="11" style="stroke: #A80036; stroke-width: 1.0;"/><path d="M1492.9656,113.375 Q1493.1219,113.1563 1493.3094,113.0469 Q1493.4969,112.9375 1493.7156,112.9375 Q1494.0906,112.9375 1494.325,113.1953 Q1494.5594,113.4531 1494.5594,114.0625 L1494.5594,115.5156 Q1494.5594,116.125 1494.325,116.3906 Q1494.0906,116.6563 1493.7156,116.6563 Q1493.3719,116.6563 1493.1688,116.4531 Q1492.9656,116.2656 1492.8563,115.75 Q1492.8094,115.3906 1492.6219,115.2031 Q1492.2938,114.8281 1491.6844,114.6094 Q1491.075,114.3906 1490.45,114.3906 Q1489.6844,114.3906 1489.0516,114.7188 Q1488.4188,115.0469 1487.9266,115.7969 Q1487.4344,116.5469 1487.4344,117.5781 L1487.4344,118.6719 Q1487.4344,119.9063 1488.325,120.7266 Q1489.2156,121.5469 1490.8094,121.5469 Q1491.7469,121.5469 1492.4031,121.2969 Q1492.7938,121.1406 1493.2156,120.7031 Q1493.4813,120.4375 1493.6297,120.3594 Q1493.7781,120.2813 1493.9813,120.2813 Q1494.3094,120.2813 1494.5672,120.5391 Q1494.825,120.7969 1494.825,121.1406 Q1494.825,121.4844 1494.4813,121.8906 Q1493.9813,122.4688 1493.1844,122.7969 Q1492.1063,123.25 1490.8094,123.25 Q1489.2938,123.25 1488.0906,122.625 Q1487.1063,122.125 1486.4188,121.0547 Q1485.7313,119.9844 1485.7313,118.7031 L1485.7313,117.5469 Q1485.7313,116.2188 1486.3484,115.0703 Q1486.9656,113.9219 1488.0594,113.3047 Q1489.1531,112.6875 1490.3875,112.6875 Q1491.1219,112.6875 1491.7703,112.8516 Q1492.4188,113.0156 1492.9656,113.375 Z "/><text fill="#000000" font-family="sans-serif" font-size="12" lengthAdjust="spacingAndGlyphs" textLength="94" x="1509.8" y="122.4102">BandDataSource</text><line style="stroke: #A80036; stroke-width: 1.5;" x1="1451" x2="1631" y1="133.5" y2="133.5"/><text fill="#000000" font-family="sans-serif" font-size="11" lengthAdjust="spacingAndGlyphs" textLength="170" x="1456" y="148.9189">source : [rasterio.Band | S3Source]</text><line style="stroke: #A80036; stroke-width: 1.5;" x1="1451" x2="1631" y1="155.3359" y2="155.3359"/><text fill="#000000" font-family="sans-serif" font-size="11" lengthAdjust="spacingAndGlyphs" textLength="30" x="1456" y="170.7549">read()</text><text fill="#000000" font-family="sans-serif" font-size="11" lengthAdjust="spacingAndGlyphs" textLength="51" x="1456" y="184.5908">reproject()</text><!--class OverrideBandDataSource--><rect fill="#FEFECE" filter="url(#fcvemcrmcf5hp)" height="89.5078" id="OverrideBandDataSource" style="stroke: #A80036; stroke-width: 1.5;" width="182" x="1223" y="101.5"/><ellipse cx="1242.5" cy="117.5" fill="#ADD1B2" rx="11" ry="11" style="stroke: #A80036; stroke-width: 1.0;"/><path d="M1245.2656,113.375 Q1245.4219,113.1563 1245.6094,113.0469 Q1245.7969,112.9375 1246.0156,112.9375 Q1246.3906,112.9375 1246.625,113.1953 Q1246.8594,113.4531 1246.8594,114.0625 L1246.8594,115.5156 Q1246.8594,116.125 1246.625,116.3906 Q1246.3906,116.6563 1246.0156,116.6563 Q1245.6719,116.6563 1245.4688,116.4531 Q1245.2656,116.2656 1245.1563,115.75 Q1245.1094,115.3906 1244.9219,115.2031 Q1244.5938,114.8281 1243.9844,114.6094 Q1243.375,114.3906 1242.75,114.3906 Q1241.9844,114.3906 1241.3516,114.7188 Q1240.7188,115.0469 1240.2266,115.7969 Q1239.7344,116.5469 1239.7344,117.5781 L1239.7344,118.6719 Q1239.7344,119.9063 1240.625,120.7266 Q1241.5156,121.5469 1243.1094,121.5469 Q1244.0469,121.5469 1244.7031,121.2969 Q1245.0938,121.1406 1245.5156,120.7031 Q1245.7813,120.4375 1245.9297,120.3594 Q1246.0781,120.2813 1246.2813,120.2813 Q1246.6094,120.2813 1246.8672,120.5391 Q1247.125,120.7969 1247.125,121.1406 Q1247.125,121.4844 1246.7813,121.8906 Q1246.2813,122.4688 1245.4844,122.7969 Q1244.4063,123.25 1243.1094,123.25 Q1241.5938,123.25 1240.3906,122.625 Q1239.4063,122.125 1238.7188,121.0547 Q1238.0313,119.9844 1238.0313,118.7031 L1238.0313,117.5469 Q1238.0313,116.2188 1238.6484,115.0703 Q1239.2656,113.9219 1240.3594,113.3047 Q1241.4531,112.6875 1242.6875,112.6875 Q1243.4219,112.6875 1244.0703,112.8516 Q1244.7188,113.0156 1245.2656,113.375 Z "/><text fill="#000000" font-family="sans-serif" font-size="12" lengthAdjust="spacingAndGlyphs" textLength="140" x="1257.5" y="122.4102">OverrideBandDataSource</text><line style="stroke: #A80036; stroke-width: 1.5;" x1="1224" x2="1404" y1="133.5" y2="133.5"/><text fill="#000000" font-family="sans-serif" font-size="11" lengthAdjust="spacingAndGlyphs" textLength="170" x="1229" y="148.9189">source : [rasterio.Band | S3Source]</text><line style="stroke: #A80036; stroke-width: 1.5;" x1="1224" x2="1404" y1="155.3359" y2="155.3359"/><text fill="#000000" font-family="sans-serif" font-size="11" lengthAdjust="spacingAndGlyphs" textLength="127" x="1229" y="170.7549">read(window, out_shape)</text><text fill="#000000" font-family="sans-serif" font-size="11" lengthAdjust="spacingAndGlyphs" textLength="51" x="1229" y="184.5908">reproject()</text><!--class RasterioDataSource--><rect fill="#FEFECE" filter="url(#fcvemcrmcf5hp)" height="48" id="RasterioDataSource" style="stroke: #A80036; stroke-width: 1.5;" width="143" x="1316.5" y="349"/><ellipse cx="1331.5" cy="365" fill="#A9DCDF" rx="11" ry="11" style="stroke: #A80036; stroke-width: 1.0;"/><path d="M1333.6875,366.7656 L1329.5469,366.7656 L1329.125,367.7969 L1329.5469,367.7969 Q1330.1563,367.7969 1330.4219,368.0313 Q1330.6875,368.2656 1330.6875,368.6563 Q1330.6875,369.0313 1330.4219,369.2656 Q1330.1563,369.5 1329.5469,369.5 L1327.25,369.5 Q1326.6406,369.5 1326.3828,369.2656 Q1326.125,369.0313 1326.125,368.6406 Q1326.125,368.2656 1326.3984,368.0234 Q1326.6719,367.7813 1327.2969,367.7969 L1329.9688,361.1406 L1328.8594,361.1406 Q1328.25,361.1406 1327.9844,360.9063 Q1327.7188,360.6719 1327.7188,360.2813 Q1327.7188,359.9063 1327.9844,359.6719 Q1328.25,359.4375 1328.8594,359.4375 L1332.5313,359.4375 L1335.9219,367.7969 Q1336.5156,367.7969 1336.7031,367.9375 Q1337.0938,368.2031 1337.0938,368.6563 Q1337.0938,369.0313 1336.8359,369.2656 Q1336.5781,369.5 1335.9688,369.5 L1333.6719,369.5 Q1333.0625,369.5 1332.7969,369.2656 Q1332.5313,369.0313 1332.5313,368.6406 Q1332.5313,368.2656 1332.7969,368.0313 Q1333.0625,367.7969 1333.6719,367.7969 L1334.0938,367.7969 L1333.6875,366.7656 Z M1332.9688,365.0625 L1331.6094,361.6875 L1330.2344,365.0625 L1332.9688,365.0625 Z "/><text fill="#000000" font-family="sans-serif" font-size="12" font-style="italic" lengthAdjust="spacingAndGlyphs" textLength="111" x="1345.5" y="369.9102">RasterioDataSource</text><line style="stroke: #A80036; stroke-width: 1.5;" x1="1317.5" x2="1458.5" y1="381" y2="381"/><line style="stroke: #A80036; stroke-width: 1.5;" x1="1317.5" x2="1458.5" y1="389" y2="389"/><!--class RasterFileDataSource--><rect fill="#FEFECE" filter="url(#fcvemcrmcf5hp)" height="61.8359" id="RasterFileDataSource" style="stroke: #A80036; stroke-width: 1.5;" width="178" x="1213" y="481"/><ellipse cx="1238.8" cy="497" fill="#ADD1B2" rx="11" ry="11" style="stroke: #A80036; stroke-width: 1.0;"/><path d="M1241.5656,492.875 Q1241.7219,492.6563 1241.9094,492.5469 Q1242.0969,492.4375 1242.3156,492.4375 Q1242.6906,492.4375 1242.925,492.6953 Q1243.1594,492.9531 1243.1594,493.5625 L1243.1594,495.0156 Q1243.1594,495.625 1242.925,495.8906 Q1242.6906,496.1563 1242.3156,496.1563 Q1241.9719,496.1563 1241.7688,495.9531 Q1241.5656,495.7656 1241.4563,495.25 Q1241.4094,494.8906 1241.2219,494.7031 Q1240.8938,494.3281 1240.2844,494.1094 Q1239.675,493.8906 1239.05,493.8906 Q1238.2844,493.8906 1237.6516,494.2188 Q1237.0188,494.5469 1236.5266,495.2969 Q1236.0344,496.0469 1236.0344,497.0781 L1236.0344,498.1719 Q1236.0344,499.4063 1236.925,500.2266 Q1237.8156,501.0469 1239.4094,501.0469 Q1240.3469,501.0469 1241.0031,500.7969 Q1241.3938,500.6406 1241.8156,500.2031 Q1242.0813,499.9375 1242.2297,499.8594 Q1242.3781,499.7813 1242.5813,499.7813 Q1242.9094,499.7813 1243.1672,500.0391 Q1243.425,500.2969 1243.425,500.6406 Q1243.425,500.9844 1243.0813,501.3906 Q1242.5813,501.9688 1241.7844,502.2969 Q1240.7063,502.75 1239.4094,502.75 Q1237.8938,502.75 1236.6906,502.125 Q1235.7063,501.625 1235.0188,500.5547 Q1234.3313,499.4844 1234.3313,498.2031 L1234.3313,497.0469 Q1234.3313,495.7188 1234.9484,494.5703 Q1235.5656,493.4219 1236.6594,492.8047 Q1237.7531,492.1875 1238.9875,492.1875 Q1239.7219,492.1875 1240.3703,492.3516 Q1241.0188,492.5156 1241.5656,492.875 Z "/><text fill="#000000" font-family="sans-serif" font-size="12" lengthAdjust="spacingAndGlyphs" textLength="122" x="1255.2" y="501.9102">RasterFileDataSource</text><line style="stroke: #A80036; stroke-width: 1.5;" x1="1214" x2="1390" y1="513" y2="513"/><line style="stroke: #A80036; stroke-width: 1.5;" x1="1214" x2="1390" y1="521" y2="521"/><text fill="#000000" font-family="sans-serif" font-size="11" lengthAdjust="spacingAndGlyphs" textLength="166" x="1219" y="536.4189">__init__(filename, bandnumber, ...)</text><!--class RasterDatasetDataSource--><rect fill="#98FB98" filter="url(#fcvemcrmcf5hp)" height="75.6719" id="RasterDatasetDataSource" style="stroke: #A80036; stroke-width: 1.5;" width="227" x="1426.5" y="474"/><rect fill="#98FB98" height="32" style="stroke: #A80036; stroke-width: 1.5;" width="227" x="1426.5" y="474"/><ellipse cx="1464" cy="490" fill="#ADD1B2" rx="11" ry="11" style="stroke: #A80036; stroke-width: 1.0;"/><path d="M1466.7656,485.875 Q1466.9219,485.6563 1467.1094,485.5469 Q1467.2969,485.4375 1467.5156,485.4375 Q1467.8906,485.4375 1468.125,485.6953 Q1468.3594,485.9531 1468.3594,486.5625 L1468.3594,488.0156 Q1468.3594,488.625 1468.125,488.8906 Q1467.8906,489.1563 1467.5156,489.1563 Q1467.1719,489.1563 1466.9688,488.9531 Q1466.7656,488.7656 1466.6563,488.25 Q1466.6094,487.8906 1466.4219,487.7031 Q1466.0938,487.3281 1465.4844,487.1094 Q1464.875,486.8906 1464.25,486.8906 Q1463.4844,486.8906 1462.8516,487.2188 Q1462.2188,487.5469 1461.7266,488.2969 Q1461.2344,489.0469 1461.2344,490.0781 L1461.2344,491.1719 Q1461.2344,492.4063 1462.125,493.2266 Q1463.0156,494.0469 1464.6094,494.0469 Q1465.5469,494.0469 1466.2031,493.7969 Q1466.5938,493.6406 1467.0156,493.2031 Q1467.2813,492.9375 1467.4297,492.8594 Q1467.5781,492.7813 1467.7813,492.7813 Q1468.1094,492.7813 1468.3672,493.0391 Q1468.625,493.2969 1468.625,493.6406 Q1468.625,493.9844 1468.2813,494.3906 Q1467.7813,494.9688 1466.9844,495.2969 Q1465.9063,495.75 1464.6094,495.75 Q1463.0938,495.75 1461.8906,495.125 Q1460.9063,494.625 1460.2188,493.5547 Q1459.5313,492.4844 1459.5313,491.2031 L1459.5313,490.0469 Q1459.5313,488.7188 1460.1484,487.5703 Q1460.7656,486.4219 1461.8594,485.8047 Q1462.9531,485.1875 1464.1875,485.1875 Q1464.9219,485.1875 1465.5703,485.3516 Q1466.2188,485.5156 1466.7656,485.875 Z "/><text fill="#000000" font-family="sans-serif" font-size="12" lengthAdjust="spacingAndGlyphs" textLength="145" x="1483" y="494.9102">RasterDatasetDataSource</text><line style="stroke: #A80036; stroke-width: 1.5;" x1="1427.5" x2="1652.5" y1="506" y2="506"/><line style="stroke: #A80036; stroke-width: 1.5;" x1="1427.5" x2="1652.5" y1="514" y2="514"/><text fill="#000000" font-family="sans-serif" font-size="11" lengthAdjust="spacingAndGlyphs" textLength="166" x="1432.5" y="529.4189">__init__(dataset, measurement_id)</text><text fill="#000000" font-family="sans-serif" font-size="11" lengthAdjust="spacingAndGlyphs" textLength="215" x="1432.5" y="543.2549">@contextmanager open() : BandDataSource</text><!--link rasterio.Band to S3Source--><path d="M135,190.963 C135,232.776 135,295.315 135,334.863 " fill="none" id="rasterio.Band-S3Source" style="stroke: #A80036; stroke-width: 1.0;"/><polygon fill="none" points="128,190.68,135,170.68,142,190.68,128,190.68" style="stroke: #A80036; stroke-width: 1.0;"/><!--link Driver to NetCDFDriver--><path d="M744.938,246.682 C750.071,250.538 755.429,254.021 761,257 C828.153,292.914 1046.7,238.644 1102,291 C1199.86,383.649 1175.92,569.632 1163.84,634.7999 " fill="none" id="Driver-NetCDFDriver" style="stroke: #A80036; stroke-width: 1.0;"/><polygon fill="none" points="739.93,251.608,729.33,233.261,749.058,240.993,739.93,251.608" style="stroke: #A80036; stroke-width: 1.0;"/><!--link DataSource to RasterioDataSource--><path d="M1065.62,208.27 C1106.57,232.337 1154.62,259.753 1199,283 C1244.62,306.896 1297.78,331.666 1336.08,348.988 " fill="none" id="DataSource-RasterioDataSource" style="stroke: #A80036; stroke-width: 1.0;"/><polygon fill="none" points="1061.91,214.205,1048.25,198.007,1069.03,202.151,1061.91,214.205" style="stroke: #A80036; stroke-width: 1.0;"/><!--link RasterioDataSource to RasterFileDataSource--><path d="M1362.74,414.232 C1349.35,435.567 1333.17,461.34 1320.88,480.922 " fill="none" id="RasterioDataSource-RasterFileDataSource" style="stroke: #A80036; stroke-width: 1.0;"/><polygon fill="none" points="1356.85,410.458,1373.41,397.24,1368.71,417.901,1356.85,410.458" style="stroke: #A80036; stroke-width: 1.0;"/><!--link RasterioDataSource to RasterDatasetDataSource--><path d="M1428.91,410.875 C1450.6,430.419 1477.16,454.363 1498.88,473.936 " fill="none" id="RasterioDataSource-RasterDatasetDataSource" style="stroke: #A80036; stroke-width: 1.0;"/><polygon fill="none" points="1423.95,415.83,1413.78,397.24,1433.33,405.431,1423.95,415.83" style="stroke: #A80036; stroke-width: 1.0;"/><!--link OverrideBandDataSource to S3DataSource--><path d="M1248.96,199.697 C1224.22,218.631 1195.39,239.622 1168,257 C1123,285.554 1070.21,313.642 1027.96,334.91 " fill="none" id="OverrideBandDataSource-S3DataSource" style="stroke: #A80036; stroke-width: 1.0;"/><polygon fill="#A80036" points="1259.3,191.724,1252.1061,192.2224,1249.7993,199.0545,1256.9932,198.5562,1259.3,191.724" style="stroke: #A80036; stroke-width: 1.0;"/><text fill="#000000" font-family="sans-serif" font-size="13" lengthAdjust="spacingAndGlyphs" textLength="111" x="1153" y="279.4951">Implemented Using</text><!--link OverrideBandDataSource to RasterioDataSource--><path d="M1332.62,204.002 C1348.07,250.87 1369.25,315.115 1380.41,348.968 " fill="none" id="OverrideBandDataSource-RasterioDataSource" style="stroke: #A80036; stroke-width: 1.0;"/><polygon fill="#A80036" points="1328.53,191.586,1326.6102,198.5368,1332.2879,202.9824,1334.2078,196.0316,1328.53,191.586" style="stroke: #A80036; stroke-width: 1.0;"/><text fill="#000000" font-family="sans-serif" font-size="13" lengthAdjust="spacingAndGlyphs" textLength="111" x="1359" y="279.4951">Implemented Using</text><!--link BandDataSource to RasterioDataSource--><path d="M1520.67,203.855 C1510.19,229.212 1496.01,258.812 1479,283 C1461.33,308.127 1436.02,332.206 1416.58,348.968 " fill="none" id="BandDataSource-RasterioDataSource" style="stroke: #A80036; stroke-width: 1.0;"/><polygon fill="#A80036" points="1525.52,191.79,1519.5723,195.8674,1521.0485,202.9258,1526.9962,198.8484,1525.52,191.79" style="stroke: #A80036; stroke-width: 1.0;"/><text fill="#000000" font-family="sans-serif" font-size="13" lengthAdjust="spacingAndGlyphs" textLength="111" x="1490" y="279.4951">Implemented Using</text><!--link DataSource to S3DataSource--><path d="M960.595,218.138 C958.183,256.808 955.293,303.154 953.32,334.805 " fill="none" id="DataSource-S3DataSource" style="stroke: #A80036; stroke-width: 1.0;"/><polygon fill="none" points="953.609,217.688,961.841,198.162,967.582,218.559,953.609,217.688" style="stroke: #A80036; stroke-width: 1.0;"/><!--link Driver to S3Driver--><path d="M583.091,224.592 C537.188,264.847 483.633,311.812 449.534,341.716 " fill="none" id="Driver-S3Driver" style="stroke: #A80036; stroke-width: 1.0;"/><polygon fill="none" points="578.673,219.156,598.325,211.232,587.904,229.682,578.673,219.156" style="stroke: #A80036; stroke-width: 1.0;"/><!--link RasterDatasetDataSource to NetCDFDriver--><path d="M1452.19,555.525 C1437.87,561.985 1423.11,568.366 1409,574 C1342.67,600.492 1264.34,625.8894 1213.27,641.6886 " fill="none" id="RasterDatasetDataSource-NetCDFDriver" style="stroke: #A80036; stroke-width: 1.0;"/><polygon fill="#A80036" points="1464.08,550.095,1456.9607,548.9483,1453.164,555.079,1460.2833,556.2257,1464.08,550.095" style="stroke: #A80036; stroke-width: 1.0;"/><!--
@startuml
'left to right direction

abstract rasterio.Band

package datacube.drivers {
    abstract DataSource {
        Responsible for reading data for a single measurement for a single Dataset
        @contextmanager open()
        get_transform()
        get_bandnumber()
    }
    abstract Driver {
        name
        format
        uri_scheme
        index xxx
        requirements_satisfied()
        write_dataset_to_storage()
        as_uri()
        _init_index()
        get_datasource()
    }
}

package datacube.drivers.s3 {
    class S3Source {
        Similar API to rasterio.Band

        read(indexes, window, write_shape)
    }
    class S3DS {
        __init__(parent)
        read(indexes, window, out_shape)

    }
    class S3DataSource #PaleGreen {
        __init__(dataset, band_name, storage)
        @contextmanager open() : OverrideBandDataSource

    }
    class S3Driver {
        get_datasource(dataset, measurement_id) : S3DataSource

    }
}

rasterio.Band <|- - S3Source 

package datacube.drivers.netcdf {
    class NetCDFDriver {

    }
    Driver <|- - NetCDFDriver
}

package datacube.storage.storage {

    class BandDataSource {
        source : [rasterio.Band | S3Source]

        read()
        reproject()
    }
    class OverrideBandDataSource {
        source : [rasterio.Band | S3Source]

        read(window, out_shape)
        reproject()

    }

    abstract RasterioDataSource {

    }
    DataSource <|- - RasterioDataSource
    class RasterFileDataSource {
        __init__(filename, bandnumber, ...)

    }
    RasterioDataSource <|- - RasterFileDataSource
    class RasterDatasetDataSource #PaleGreen {
        __init__(dataset, measurement_id)
        @contextmanager open() : BandDataSource

    }
    RasterioDataSource <|- - RasterDatasetDataSource
}

OverrideBandDataSource *- - S3DataSource : Implemented Using
OverrideBandDataSource *- - RasterioDataSource : Implemented Using
BandDataSource *- - RasterioDataSource : Implemented Using
DataSource <|- - S3DataSource
Driver <|- - S3Driver
RasterDatasetDataSource *- - NetCDFDriver
@enduml

PlantUML version 1.2017.19(Sun Nov 12 22:46:22 AEDT 2017)
(GPL source distribution)
Java Runtime: OpenJDK Runtime Environment
JVM: OpenJDK 64-Bit Server VM
Java Version: 1.8.0_121-b15
Operating System: Windows 7
OS Version: 6.1
Default Encoding: Cp1252
Language: en
Country: AU
--></g></svg>